<mxfile host="Electron" agent="Mozilla/5.0 (Windows NT 10.0; Win64; x64) AppleWebKit/537.36 (KHTML, like Gecko) draw.io/27.0.9 Chrome/134.0.6998.205 Electron/35.4.0 Safari/537.36" version="27.0.9">
  <diagram name="Pagina-1" id="CUr7NPzKlp3vKLIO8e2-">
    <mxGraphModel dx="1042" dy="722" grid="1" gridSize="10" guides="1" tooltips="1" connect="1" arrows="1" fold="1" page="1" pageScale="1" pageWidth="827" pageHeight="1169" background="none" math="0" shadow="0">
      <root>
        <mxCell id="0" />
        <mxCell id="1" parent="0" />
        <mxCell id="iC2TeNfhE7EaZ4dwTjjp-53" value="" style="shape=folder;fontStyle=1;tabWidth=110;tabHeight=30;tabPosition=left;html=1;boundedLbl=1;labelInHeader=1;container=1;collapsible=0;recursiveResize=0;whiteSpace=wrap;fillColor=#FFFFFF;strokeColor=default;fillStyle=solid;gradientColor=none;noLabel=0;labelPadding=0;snapToPoint=0;backgroundOutline=0;shadow=0;rounded=0;" parent="1" vertex="1">
          <mxGeometry x="44" y="20" width="740" height="340" as="geometry" />
        </mxCell>
        <mxCell id="iC2TeNfhE7EaZ4dwTjjp-125" value="&lt;font style=&quot;color: rgb(255, 255, 255);&quot;&gt;InterfacciaPannelloControllo&lt;/font&gt;" style="fontStyle=1;whiteSpace=wrap;html=1;fillColor=#FF8000;" parent="iC2TeNfhE7EaZ4dwTjjp-53" vertex="1">
          <mxGeometry width="190" height="30" as="geometry" />
        </mxCell>
        <mxCell id="iC2TeNfhE7EaZ4dwTjjp-153" value="ViewRimozioneSensore" style="swimlane;fontStyle=1;align=center;verticalAlign=top;childLayout=stackLayout;horizontal=1;startSize=26;horizontalStack=0;resizeParent=1;resizeParentMax=0;resizeLast=0;collapsible=1;marginBottom=0;whiteSpace=wrap;html=1;strokeColor=#FFFFFF;fillColor=#FF8000;swimlaneFillColor=#FF8000;fontColor=#FFFFFF;" parent="iC2TeNfhE7EaZ4dwTjjp-53" vertex="1">
          <mxGeometry x="66" y="250" width="180" height="68" as="geometry" />
        </mxCell>
        <mxCell id="iC2TeNfhE7EaZ4dwTjjp-154" style="line;strokeWidth=1;fillColor=none;align=left;verticalAlign=middle;spacingTop=-1;spacingLeft=3;spacingRight=3;rotatable=0;labelPosition=right;points=[];portConstraint=eastwest;strokeColor=none;dashed=1;" parent="iC2TeNfhE7EaZ4dwTjjp-153" vertex="1">
          <mxGeometry y="26" width="180" height="14" as="geometry" />
        </mxCell>
        <mxCell id="iC2TeNfhE7EaZ4dwTjjp-155" value="" style="line;strokeWidth=1;fillColor=none;align=left;verticalAlign=middle;spacingTop=-1;spacingLeft=3;spacingRight=3;rotatable=0;labelPosition=right;points=[];portConstraint=eastwest;strokeColor=#000105;dashed=1;" parent="iC2TeNfhE7EaZ4dwTjjp-153" vertex="1">
          <mxGeometry y="40" width="180" height="14" as="geometry" />
        </mxCell>
        <mxCell id="iC2TeNfhE7EaZ4dwTjjp-156" style="line;strokeWidth=1;fillColor=none;align=left;verticalAlign=middle;spacingTop=-1;spacingLeft=3;spacingRight=3;rotatable=0;labelPosition=right;points=[];portConstraint=eastwest;strokeColor=none;dashed=1;" parent="iC2TeNfhE7EaZ4dwTjjp-153" vertex="1">
          <mxGeometry y="54" width="180" height="14" as="geometry" />
        </mxCell>
        <mxCell id="iC2TeNfhE7EaZ4dwTjjp-157" value="ViewModificaSoglieRischio" style="swimlane;fontStyle=1;align=center;verticalAlign=top;childLayout=stackLayout;horizontal=1;startSize=26;horizontalStack=0;resizeParent=1;resizeParentMax=0;resizeLast=0;collapsible=1;marginBottom=0;whiteSpace=wrap;html=1;strokeColor=#FFFFFF;fillColor=#FF8000;swimlaneFillColor=#FF8000;fontColor=#FFFFFF;" parent="iC2TeNfhE7EaZ4dwTjjp-53" vertex="1">
          <mxGeometry x="476" y="250" width="180" height="68" as="geometry" />
        </mxCell>
        <mxCell id="iC2TeNfhE7EaZ4dwTjjp-158" style="line;strokeWidth=1;fillColor=none;align=left;verticalAlign=middle;spacingTop=-1;spacingLeft=3;spacingRight=3;rotatable=0;labelPosition=right;points=[];portConstraint=eastwest;strokeColor=none;dashed=1;" parent="iC2TeNfhE7EaZ4dwTjjp-157" vertex="1">
          <mxGeometry y="26" width="180" height="14" as="geometry" />
        </mxCell>
        <mxCell id="iC2TeNfhE7EaZ4dwTjjp-159" value="" style="line;strokeWidth=1;fillColor=none;align=left;verticalAlign=middle;spacingTop=-1;spacingLeft=3;spacingRight=3;rotatable=0;labelPosition=right;points=[];portConstraint=eastwest;strokeColor=#000105;dashed=1;" parent="iC2TeNfhE7EaZ4dwTjjp-157" vertex="1">
          <mxGeometry y="40" width="180" height="14" as="geometry" />
        </mxCell>
        <mxCell id="iC2TeNfhE7EaZ4dwTjjp-160" style="line;strokeWidth=1;fillColor=none;align=left;verticalAlign=middle;spacingTop=-1;spacingLeft=3;spacingRight=3;rotatable=0;labelPosition=right;points=[];portConstraint=eastwest;strokeColor=none;dashed=1;" parent="iC2TeNfhE7EaZ4dwTjjp-157" vertex="1">
          <mxGeometry y="54" width="180" height="14" as="geometry" />
        </mxCell>
        <mxCell id="iC2TeNfhE7EaZ4dwTjjp-149" value="ViewInvioMessaggio" style="swimlane;fontStyle=1;align=center;verticalAlign=top;childLayout=stackLayout;horizontal=1;startSize=26;horizontalStack=0;resizeParent=1;resizeParentMax=0;resizeLast=0;collapsible=1;marginBottom=0;whiteSpace=wrap;html=1;strokeColor=#FFFFFF;fillColor=#FF8000;swimlaneFillColor=#FF8000;fontColor=#FFFFFF;" parent="iC2TeNfhE7EaZ4dwTjjp-53" vertex="1">
          <mxGeometry x="516" y="136" width="180" height="68" as="geometry" />
        </mxCell>
        <mxCell id="iC2TeNfhE7EaZ4dwTjjp-150" style="line;strokeWidth=1;fillColor=none;align=left;verticalAlign=middle;spacingTop=-1;spacingLeft=3;spacingRight=3;rotatable=0;labelPosition=right;points=[];portConstraint=eastwest;strokeColor=none;dashed=1;" parent="iC2TeNfhE7EaZ4dwTjjp-149" vertex="1">
          <mxGeometry y="26" width="180" height="14" as="geometry" />
        </mxCell>
        <mxCell id="iC2TeNfhE7EaZ4dwTjjp-151" value="" style="line;strokeWidth=1;fillColor=none;align=left;verticalAlign=middle;spacingTop=-1;spacingLeft=3;spacingRight=3;rotatable=0;labelPosition=right;points=[];portConstraint=eastwest;strokeColor=#000105;dashed=1;" parent="iC2TeNfhE7EaZ4dwTjjp-149" vertex="1">
          <mxGeometry y="40" width="180" height="14" as="geometry" />
        </mxCell>
        <mxCell id="iC2TeNfhE7EaZ4dwTjjp-152" style="line;strokeWidth=1;fillColor=none;align=left;verticalAlign=middle;spacingTop=-1;spacingLeft=3;spacingRight=3;rotatable=0;labelPosition=right;points=[];portConstraint=eastwest;strokeColor=none;dashed=1;" parent="iC2TeNfhE7EaZ4dwTjjp-149" vertex="1">
          <mxGeometry y="54" width="180" height="14" as="geometry" />
        </mxCell>
        <mxCell id="iC2TeNfhE7EaZ4dwTjjp-67" value="HomePannelloControllo" style="swimlane;fontStyle=1;align=center;verticalAlign=top;childLayout=stackLayout;horizontal=1;startSize=26;horizontalStack=0;resizeParent=1;resizeParentMax=0;resizeLast=0;collapsible=1;marginBottom=0;whiteSpace=wrap;html=1;fillColor=#FF8000;strokeColor=#FFFFFF;fontColor=#FFFFFF;swimlaneFillColor=#FF8000;" parent="1" vertex="1">
          <mxGeometry x="330" y="70" width="180" height="80" as="geometry" />
        </mxCell>
        <mxCell id="iC2TeNfhE7EaZ4dwTjjp-162" style="line;strokeWidth=1;fillColor=none;align=left;verticalAlign=middle;spacingTop=-1;spacingLeft=3;spacingRight=3;rotatable=0;labelPosition=right;points=[];portConstraint=eastwest;strokeColor=none;dashed=1;" parent="iC2TeNfhE7EaZ4dwTjjp-67" vertex="1">
          <mxGeometry y="26" width="180" height="14" as="geometry" />
        </mxCell>
        <mxCell id="iC2TeNfhE7EaZ4dwTjjp-69" value="" style="line;strokeWidth=1;fillColor=none;align=left;verticalAlign=middle;spacingTop=-1;spacingLeft=3;spacingRight=3;rotatable=0;labelPosition=right;points=[];portConstraint=eastwest;strokeColor=default;dashed=1;" parent="iC2TeNfhE7EaZ4dwTjjp-67" vertex="1">
          <mxGeometry y="40" width="180" height="24" as="geometry" />
        </mxCell>
        <mxCell id="iC2TeNfhE7EaZ4dwTjjp-161" style="line;strokeWidth=1;fillColor=none;align=left;verticalAlign=middle;spacingTop=-1;spacingLeft=3;spacingRight=3;rotatable=0;labelPosition=right;points=[];portConstraint=eastwest;strokeColor=none;dashed=1;" parent="iC2TeNfhE7EaZ4dwTjjp-67" vertex="1">
          <mxGeometry y="64" width="180" height="16" as="geometry" />
        </mxCell>
        <mxCell id="iC2TeNfhE7EaZ4dwTjjp-171" style="edgeStyle=orthogonalEdgeStyle;rounded=0;orthogonalLoop=1;jettySize=auto;html=1;exitX=0;exitY=0.75;exitDx=0;exitDy=0;entryX=0;entryY=0.25;entryDx=0;entryDy=0;dashed=1;endArrow=open;endFill=0;strokeColor=#A9C4EB;" parent="1" source="iC2TeNfhE7EaZ4dwTjjp-71" target="iC2TeNfhE7EaZ4dwTjjp-130" edge="1">
          <mxGeometry relative="1" as="geometry">
            <Array as="points">
              <mxPoint x="20" y="221" />
              <mxPoint x="20" y="491" />
            </Array>
          </mxGeometry>
        </mxCell>
        <mxCell id="iC2TeNfhE7EaZ4dwTjjp-172" value="&lt;font style=&quot;font-size: 12px; color: rgb(169, 196, 235);&quot;&gt;uses&lt;/font&gt;" style="edgeLabel;html=1;align=center;verticalAlign=middle;resizable=0;points=[];" parent="iC2TeNfhE7EaZ4dwTjjp-171" vertex="1" connectable="0">
          <mxGeometry x="-0.0125" y="-1" relative="1" as="geometry">
            <mxPoint as="offset" />
          </mxGeometry>
        </mxCell>
        <mxCell id="iC2TeNfhE7EaZ4dwTjjp-71" value="ViewAggiuntaSensore" style="swimlane;fontStyle=1;align=center;verticalAlign=top;childLayout=stackLayout;horizontal=1;startSize=26;horizontalStack=0;resizeParent=1;resizeParentMax=0;resizeLast=0;collapsible=1;marginBottom=0;whiteSpace=wrap;html=1;strokeColor=#FFFFFF;fillColor=#FF8000;swimlaneFillColor=#FF8000;fontColor=#FFFFFF;" parent="1" vertex="1">
          <mxGeometry x="60" y="170" width="180" height="68" as="geometry" />
        </mxCell>
        <mxCell id="iC2TeNfhE7EaZ4dwTjjp-138" style="line;strokeWidth=1;fillColor=none;align=left;verticalAlign=middle;spacingTop=-1;spacingLeft=3;spacingRight=3;rotatable=0;labelPosition=right;points=[];portConstraint=eastwest;strokeColor=none;dashed=1;" parent="iC2TeNfhE7EaZ4dwTjjp-71" vertex="1">
          <mxGeometry y="26" width="180" height="14" as="geometry" />
        </mxCell>
        <mxCell id="iC2TeNfhE7EaZ4dwTjjp-73" value="" style="line;strokeWidth=1;fillColor=none;align=left;verticalAlign=middle;spacingTop=-1;spacingLeft=3;spacingRight=3;rotatable=0;labelPosition=right;points=[];portConstraint=eastwest;strokeColor=#000105;dashed=1;" parent="iC2TeNfhE7EaZ4dwTjjp-71" vertex="1">
          <mxGeometry y="40" width="180" height="14" as="geometry" />
        </mxCell>
        <mxCell id="iC2TeNfhE7EaZ4dwTjjp-139" style="line;strokeWidth=1;fillColor=none;align=left;verticalAlign=middle;spacingTop=-1;spacingLeft=3;spacingRight=3;rotatable=0;labelPosition=right;points=[];portConstraint=eastwest;strokeColor=none;dashed=1;" parent="iC2TeNfhE7EaZ4dwTjjp-71" vertex="1">
          <mxGeometry y="54" width="180" height="14" as="geometry" />
        </mxCell>
        <mxCell id="iC2TeNfhE7EaZ4dwTjjp-88" style="rounded=0;orthogonalLoop=1;jettySize=auto;html=1;exitX=0;exitY=0.75;exitDx=0;exitDy=0;strokeColor=#A9C4EB;endArrow=open;endFill=0;" parent="1" source="iC2TeNfhE7EaZ4dwTjjp-67" target="iC2TeNfhE7EaZ4dwTjjp-71" edge="1">
          <mxGeometry relative="1" as="geometry">
            <mxPoint x="330" y="145" as="sourcePoint" />
          </mxGeometry>
        </mxCell>
        <mxCell id="iC2TeNfhE7EaZ4dwTjjp-89" style="rounded=0;orthogonalLoop=1;jettySize=auto;html=1;exitX=1;exitY=0.75;exitDx=0;exitDy=0;entryX=0.02;entryY=0.362;entryDx=0;entryDy=0;entryPerimeter=0;endArrow=open;endFill=0;strokeColor=#A9C4EB;" parent="1" source="iC2TeNfhE7EaZ4dwTjjp-67" target="iC2TeNfhE7EaZ4dwTjjp-149" edge="1">
          <mxGeometry relative="1" as="geometry">
            <mxPoint x="510" y="145" as="sourcePoint" />
            <mxPoint x="562.73" y="177.22400000000016" as="targetPoint" />
          </mxGeometry>
        </mxCell>
        <mxCell id="iC2TeNfhE7EaZ4dwTjjp-90" style="rounded=0;orthogonalLoop=1;jettySize=auto;html=1;exitX=0.289;exitY=0.074;exitDx=0;exitDy=0;entryX=0.75;entryY=1;entryDx=0;entryDy=0;endArrow=none;startFill=0;startArrow=open;strokeColor=#A9C4EB;exitPerimeter=0;" parent="1" source="iC2TeNfhE7EaZ4dwTjjp-157" target="iC2TeNfhE7EaZ4dwTjjp-67" edge="1">
          <mxGeometry relative="1" as="geometry">
            <mxPoint x="535" y="270" as="sourcePoint" />
            <mxPoint x="441.24" y="160.80999999999995" as="targetPoint" />
          </mxGeometry>
        </mxCell>
        <mxCell id="iC2TeNfhE7EaZ4dwTjjp-91" style="rounded=0;orthogonalLoop=1;jettySize=auto;html=1;exitX=0.75;exitY=0;exitDx=0;exitDy=0;entryX=0.25;entryY=1;entryDx=0;entryDy=0;startArrow=open;startFill=0;endArrow=none;strokeColor=#A9C4EB;" parent="1" source="iC2TeNfhE7EaZ4dwTjjp-153" target="iC2TeNfhE7EaZ4dwTjjp-67" edge="1">
          <mxGeometry relative="1" as="geometry">
            <mxPoint x="260" y="270" as="sourcePoint" />
            <mxPoint x="387.5999999999999" y="159.19000000000005" as="targetPoint" />
          </mxGeometry>
        </mxCell>
        <mxCell id="iC2TeNfhE7EaZ4dwTjjp-127" value="Package" style="shape=folder;fontStyle=1;tabWidth=110;tabHeight=30;tabPosition=left;html=1;boundedLbl=1;labelInHeader=1;container=1;collapsible=0;whiteSpace=wrap;" parent="1" vertex="1">
          <mxGeometry x="44" y="410" width="286" height="220" as="geometry" />
        </mxCell>
        <mxCell id="iC2TeNfhE7EaZ4dwTjjp-128" value="" style="html=1;strokeColor=none;resizeWidth=1;resizeHeight=1;fillColor=none;part=1;connectable=0;allowArrows=0;deletable=0;whiteSpace=wrap;" parent="iC2TeNfhE7EaZ4dwTjjp-127" vertex="1">
          <mxGeometry width="286" height="154" relative="1" as="geometry">
            <mxPoint y="30" as="offset" />
          </mxGeometry>
        </mxCell>
        <mxCell id="iC2TeNfhE7EaZ4dwTjjp-129" value="&lt;font style=&quot;color: rgb(255, 255, 255);&quot;&gt;GestionePannelloControllo&lt;/font&gt;" style="fontStyle=1;whiteSpace=wrap;html=1;fillColor=#60A917;" parent="iC2TeNfhE7EaZ4dwTjjp-127" vertex="1">
          <mxGeometry width="170" height="30" as="geometry" />
        </mxCell>
        <mxCell id="iC2TeNfhE7EaZ4dwTjjp-130" value="PannelloController" style="swimlane;fontStyle=1;align=center;verticalAlign=top;childLayout=stackLayout;horizontal=1;startSize=26;horizontalStack=0;resizeParent=1;resizeParentMax=0;resizeLast=0;collapsible=1;marginBottom=0;whiteSpace=wrap;html=1;fillColor=#60A917;swimlaneFillColor=#60A917;strokeColor=#FFFFFF;fontColor=#FFFFFF;" parent="iC2TeNfhE7EaZ4dwTjjp-127" vertex="1">
          <mxGeometry x="24.08" y="40.003" width="237.83" height="162.40000000000003" as="geometry" />
        </mxCell>
        <mxCell id="iC2TeNfhE7EaZ4dwTjjp-135" style="line;strokeWidth=1;fillColor=none;align=left;verticalAlign=bottom;spacingTop=-1;spacingLeft=3;spacingRight=3;rotatable=0;labelPosition=right;points=[];portConstraint=eastwest;strokeColor=none;dashed=1;perimeterSpacing=0;noLabel=0;" parent="iC2TeNfhE7EaZ4dwTjjp-130" vertex="1">
          <mxGeometry y="26" width="237.83" height="26.400000000000002" as="geometry" />
        </mxCell>
        <mxCell id="iC2TeNfhE7EaZ4dwTjjp-133" style="line;strokeWidth=1;fillColor=none;align=left;verticalAlign=bottom;spacingTop=-1;spacingLeft=3;spacingRight=3;rotatable=0;labelPosition=right;points=[];portConstraint=eastwest;strokeColor=default;dashed=1;perimeterSpacing=0;noLabel=0;" parent="iC2TeNfhE7EaZ4dwTjjp-130" vertex="1">
          <mxGeometry y="52.400000000000006" width="237.83" height="11" as="geometry" />
        </mxCell>
        <mxCell id="iC2TeNfhE7EaZ4dwTjjp-132" value="+ aggiungiSensore(Sensore)&lt;div&gt;+ rimuoviSensore(String)&lt;/div&gt;&lt;div&gt;+ modificaArgine(String, Float)&lt;/div&gt;&lt;div&gt;+ modificaSoglieRischio(String, Soglie)&lt;/div&gt;&lt;div&gt;+ inviaMessaggio(String[], Messaggio)&lt;/div&gt;&lt;div&gt;&lt;br&gt;&lt;/div&gt;" style="text;strokeColor=none;fillColor=none;align=left;verticalAlign=top;spacingLeft=4;spacingRight=4;overflow=hidden;rotatable=0;points=[[0,0.5],[1,0.5]];portConstraint=eastwest;whiteSpace=wrap;html=1;" parent="iC2TeNfhE7EaZ4dwTjjp-130" vertex="1">
          <mxGeometry y="63.400000000000006" width="237.83" height="99.00000000000001" as="geometry" />
        </mxCell>
        <mxCell id="iC2TeNfhE7EaZ4dwTjjp-163" style="rounded=0;orthogonalLoop=1;jettySize=auto;html=1;exitX=0.75;exitY=1;exitDx=0;exitDy=0;entryX=0.75;entryY=0;entryDx=0;entryDy=0;dashed=1;strokeColor=#A9C4EB;endArrow=open;endFill=0;" parent="1" source="iC2TeNfhE7EaZ4dwTjjp-153" target="iC2TeNfhE7EaZ4dwTjjp-130" edge="1">
          <mxGeometry relative="1" as="geometry" />
        </mxCell>
        <mxCell id="iC2TeNfhE7EaZ4dwTjjp-164" value="&lt;font style=&quot;font-size: 12px; color: rgb(169, 196, 235);&quot;&gt;uses&lt;/font&gt;" style="edgeLabel;html=1;align=center;verticalAlign=middle;resizable=0;points=[];" parent="iC2TeNfhE7EaZ4dwTjjp-163" vertex="1" connectable="0">
          <mxGeometry x="-0.0429" relative="1" as="geometry">
            <mxPoint as="offset" />
          </mxGeometry>
        </mxCell>
        <mxCell id="iC2TeNfhE7EaZ4dwTjjp-165" style="rounded=0;orthogonalLoop=1;jettySize=auto;html=1;exitX=0.5;exitY=1;exitDx=0;exitDy=0;entryX=0.906;entryY=0.006;entryDx=0;entryDy=0;entryPerimeter=0;dashed=1;strokeColor=#A9C4EB;" parent="1" source="iC2TeNfhE7EaZ4dwTjjp-67" target="iC2TeNfhE7EaZ4dwTjjp-130" edge="1">
          <mxGeometry relative="1" as="geometry" />
        </mxCell>
        <mxCell id="iC2TeNfhE7EaZ4dwTjjp-166" value="&lt;font style=&quot;font-size: 12px; color: rgb(169, 196, 235);&quot;&gt;uses&lt;/font&gt;" style="edgeLabel;html=1;align=center;verticalAlign=middle;resizable=0;points=[];" parent="iC2TeNfhE7EaZ4dwTjjp-165" vertex="1" connectable="0">
          <mxGeometry x="-0.0055" y="-3" relative="1" as="geometry">
            <mxPoint as="offset" />
          </mxGeometry>
        </mxCell>
        <mxCell id="iC2TeNfhE7EaZ4dwTjjp-167" style="rounded=0;orthogonalLoop=1;jettySize=auto;html=1;exitX=0;exitY=0.75;exitDx=0;exitDy=0;entryX=1;entryY=0.25;entryDx=0;entryDy=0;endArrow=open;endFill=0;dashed=1;strokeColor=#A9C4EB;" parent="1" source="iC2TeNfhE7EaZ4dwTjjp-157" target="iC2TeNfhE7EaZ4dwTjjp-130" edge="1">
          <mxGeometry relative="1" as="geometry" />
        </mxCell>
        <mxCell id="iC2TeNfhE7EaZ4dwTjjp-168" value="&lt;font style=&quot;font-size: 12px; color: rgb(169, 196, 235);&quot;&gt;uses&lt;/font&gt;" style="edgeLabel;html=1;align=center;verticalAlign=middle;resizable=0;points=[];" parent="iC2TeNfhE7EaZ4dwTjjp-167" vertex="1" connectable="0">
          <mxGeometry x="-0.0164" y="-2" relative="1" as="geometry">
            <mxPoint as="offset" />
          </mxGeometry>
        </mxCell>
        <mxCell id="iC2TeNfhE7EaZ4dwTjjp-169" style="rounded=0;orthogonalLoop=1;jettySize=auto;html=1;exitX=0;exitY=0.75;exitDx=0;exitDy=0;entryX=0.984;entryY=0.046;entryDx=0;entryDy=0;entryPerimeter=0;dashed=1;endArrow=open;endFill=0;strokeColor=#A9C4EB;" parent="1" source="iC2TeNfhE7EaZ4dwTjjp-149" target="iC2TeNfhE7EaZ4dwTjjp-130" edge="1">
          <mxGeometry relative="1" as="geometry" />
        </mxCell>
        <mxCell id="iC2TeNfhE7EaZ4dwTjjp-170" value="&lt;font style=&quot;font-size: 12px; color: rgb(169, 196, 235);&quot;&gt;uses&lt;/font&gt;" style="edgeLabel;html=1;align=center;verticalAlign=middle;resizable=0;points=[];" parent="iC2TeNfhE7EaZ4dwTjjp-169" vertex="1" connectable="0">
          <mxGeometry x="0.0063" y="1" relative="1" as="geometry">
            <mxPoint as="offset" />
          </mxGeometry>
        </mxCell>
      </root>
    </mxGraphModel>
  </diagram>
</mxfile>
